<svg width="200" height="200" viewBox="0 0 200 200" fill="none" xmlns="http://www.w3.org/2000/svg">
<path d="M66.6667 100L66.6667 61.3334C66.6666 48.134 66.6666 41.5344 70.7672 37.4338C74.8677 33.3333 81.4673 33.3333 94.6666 33.3333L105.333 33.3333C118.533 33.3333 125.132 33.3333 129.233 37.4339C133.333 41.5344 133.333 48.134 133.333 61.3333L133.333 100" stroke="#33363F" stroke-width="5" stroke-linecap="round"/>
<path d="M33.0277 78.6678C33.1728 76.9269 33.2453 76.0565 33.8194 75.5282C34.3935 75 35.2669 75 37.0139 75H162.986C164.733 75 165.607 75 166.181 75.5282C166.755 76.0565 166.827 76.9269 166.972 78.6678L174.819 172.834C174.904 173.847 174.946 174.354 174.649 174.677C174.352 175 173.843 175 172.826 175H27.1736C26.1565 175 25.648 175 25.3509 174.677C25.0538 174.354 25.096 173.847 25.1805 172.834L33.0277 78.6678Z" stroke="#33363F" stroke-width="5"/>
</svg>
